<svg width="30" height="49" viewBox="0 0 30 49" fill="none" xmlns="http://www.w3.org/2000/svg">
<path d="M16.5554 0H13.4446C6.05034 0 0 6.05034 0 13.4446V34.7529C0 42.1472 6.05034 48.1976 13.4446 48.1976H16.5554C23.9497 48.1976 30 42.1472 30 34.7529V13.4446C30 6.05034 23.9497 0 16.5554 0Z" fill="#D0CFCE"/>
<path d="M14.9997 6.71853C14.3081 6.72052 13.6454 6.99613 13.1564 7.48515C12.6674 7.97417 12.3918 8.63685 12.3898 9.32843V16.6699C12.3921 17.3612 12.6679 18.0236 13.1568 18.5123C13.6458 19.0011 14.3083 19.2765 14.9997 19.2785C15.691 19.2765 16.3535 19.0011 16.8425 18.5123C17.3315 18.0236 17.6072 17.3612 17.6096 16.6699V9.32843C17.6076 8.63685 17.332 7.97417 16.8429 7.48515C16.3539 6.99613 15.6912 6.72052 14.9997 6.71853Z" fill="#3F3F3F"/>
<path d="M13.0342 1.59187C13.6807 1.74714 14.3094 1.96852 14.9105 2.25252C18.3019 3.87836 21.3056 6.30831 21.6869 11.6741C22.1752 18.5386 19.6358 31.3918 18.8178 37.9203C18.2478 42.4845 15.9902 44.5986 12.9915 46.9933C11.4814 48.2026 19.6194 48.0554 22.9705 46.0961C23.2473 45.9342 23.5066 45.7836 23.7482 45.6443C25.2459 44.7789 26.4929 43.5391 27.3669 42.0465C28.241 40.5538 28.712 38.8596 28.7339 37.13L29.0561 11.3733C29.0724 10.0608 28.8585 8.74707 28.3426 7.54028C27.2377 4.9568 24.5586 1.23826 18.2943 1.23574C18.2943 1.23574 9.83164 0.800343 13.0342 1.59187Z" fill="#9B9B9A"/>
</svg>
